<svg width="300" height="105" viewBox="0 0 300 105" fill="none" xmlns="http://www.w3.org/2000/svg">
<path d="M-11 30.0727C29.5 4.86418 46 -1.02613 73 0.137797C100 1.30172 172 34.7995 238 39.5259C304 44.2524 310 33.2237 310 33.2237V112H-11V30.0727Z" fill="#BFD7EA"/>
<path d="M224.409 8.20164C259.989 16.7757 313 47.7699 313 47.7699V100H-11.3328C-11.3328 100 -12.834 41.4389 -11.3327 41.4389C-9.8315 41.4389 13.5282 46.1004 27.7074 47.7699C105.427 56.9207 148.173 -10.17 224.409 8.20164Z" fill="#0B3954" fill-opacity="0.75"/>
<path d="M-12 57.7085C28.5 41.9264 51 41.2184 88.5 44.7243C126 48.2303 171 60.6677 237 63.6268C303 66.5859 309 59.6812 309 59.6812V109H-12V57.7085Z" fill="#0B3954"/>
</svg>
